#!OML:ASF F:\VICON\USERDATA\INSTALL\Justin_Nancy\Justin_Nancy.ASF
:FULLY-SPECIFIED
:DEGREES
302
root -6.87035 17.6303 9.87026 0.648052 -49.0673 -2.67535
lowerback 7.46662 -0.190015 0.168565
upperback 0.632545 -0.149057 3.1577
thorax -3.52658 -0.0668322 3.19453
lowerneck -15.6311 -3.78988 -10.2306
upperneck 22.6068 -4.08292 5.32052
head 10.1163 -2.21039 3.03625
rclavicle -7.64824e-014 -8.74653e-015
rhumerus -34.1211 -15.1154 -76.2052
rradius 28.103
rwrist 5.0374
rhand -13.186 13.0234
rfingers 7.12502
rthumb 12.9139 -16.557
lclavicle -7.64824e-014 -8.74653e-015
lhumerus -30.2175 9.04253 84.6339
lradius 28.8448
lwrist -10.3073
lhand -17.2937 23.9282
lfingers 7.12502
lthumb 8.9519 53.7182
rfemur -6.8742 3.24285 28.3662
rtibia 17.2093
rfoot -5.96415 1.33745
rtoes 5.45393
lfemur -21.7934 1.46839 -16.9587
ltibia 70.4877
lfoot 5.49013 -7.42726
ltoes -12.8036
303
root -6.97816 17.6403 9.96566 0.717356 -49.0475 -2.8259
lowerback 7.53759 -0.148346 0.293849
upperback 0.594953 -0.0804764 3.15908
thorax -3.60922 -0.0338214 3.11912
lowerneck -15.5149 -3.77588 -10.1471
upperneck 22.6564 -4.07652 5.22054
head 10.1074 -2.21486 2.98893
rclavicle 2.62396e-014 9.54166e-015
rhumerus -33.9462 -15.5055 -75.7747
rradius 28.005
rwrist 6.55914
rhand -12.1783 14.4954
rfingers 7.12502
rthumb 13.8852 -15.0211
lclavicle 2.62396e-014 9.54166e-015
lhumerus -30.5735 9.13109 84.7687
lradius 28.677
lwrist -10.2021
lhand -17.807 23.7512
lfingers 7.12502
lthumb 8.45657 53.5618
rfemur -6.22844 3.03659 28.5033
rtibia 17.1624
rfoot -6.49674 1.39083
rtoes 5.54871
lfemur -22.8092 1.37737 -16.8677
ltibia 70.5484
lfoot 4.97622 -6.32549
ltoes -9.53578
304
root -7.08094 17.6214 10.0574 0.943668 -49.3504 -3.19951
lowerback 7.58459 -0.0778684 0.465741
upperback 0.67091 0.0262795 3.1895
thorax -3.56224 0.0153667 3.04216
lowerneck -15.7149 -3.75852 -9.90914
upperneck 22.7729 -4.05455 5.05256
head 10.176 -2.20232 2.89171
rclavicle -7.2457e-014 -1.74931e-014
rhumerus -33.3924 -14.9786 -76.3479
rradius 28.3893
rwrist 5.35515
rhand -12.9114 13.6788
rfingers 7.12502
rthumb 13.1786 -15.8847
lclavicle -7.2457e-014 -1.74931e-014
lhumerus -30.71 9.28318 84.7582
lradius 28.3872
lwrist -10.4588
lhand -17.9342 23.8061
lfingers 7.12502
lthumb 8.33386 53.6217
rfemur -5.59346 3.1231 28.813
rtibia 17.0627
rfoot -6.89718 1.45707
rtoes 6.40936
lfemur -23.6148 1.94521 -16.734
ltibia 70.4632
lfoot 3.8707 -5.86462
ltoes -11.6521
305
root -7.18237 17.6086 10.1436 1.03713 -49.7265 -3.22075
lowerback 7.63398 0.0374436 0.371043
upperback 0.615221 0.174793 3.17103
thorax -3.65528 0.0917533 3.06155
lowerneck -15.7206 -3.73814 -9.82941
upperneck 22.898 -4.06287 5.08956
head 10.2212 -2.19786 2.89201
rclavicle -4.87022e-014 2.22639e-014
rhumerus -33.0083 -15.312 -76.3111
rradius 28.4382
rwrist 6.07891
rhand -12.3967 14.6076
rfingers 7.12502
rthumb 13.6747 -14.9232
lclavicle -4.87022e-014 2.22639e-014
lhumerus -30.9284 9.51169 84.6976
lradius 28.1014
lwrist -10.5761
lhand -17.7264 23.8569
lfingers 7.12502
lthumb 8.53439 53.6645
rfemur -5.20042 3.45002 28.8665
rtibia 17.1427
rfoot -7.28721 1.34486
rtoes 8.48061
lfemur -24.5716 2.29945 -16.828
ltibia 70.1854
lfoot 3.11189 -5.13113
ltoes -11.906
306
root -7.28342 17.6038 10.2316 1.28054 -49.9377 -3.45542
lowerback 7.62253 0.183571 0.623468
upperback 0.572784 0.390241 3.11104
thorax -3.70161 0.195025 2.8334
lowerneck -15.4919 -3.86617 -9.87101
upperneck 22.6981 -4.28814 5.24191
head 10.129 -2.28754 2.92189
rclavicle -7.51406e-014 1.59028e-014
rhumerus -32.8443 -15.0971 -76.5066
rradius 28.9033
rwrist 5.88989
rhand -12.2567 14.6451
rfingers 7.12502
rthumb 13.8096 -14.8766
lclavicle -7.51406e-014 1.59028e-014
lhumerus -31.0093 9.31887 84.7326
lradius 27.6987
lwrist -10.3025
lhand -17.5744 23.6516
lfingers 7.12502
lthumb 8.6811 53.4531
rfemur -4.80007 3.57042 29.0695
rtibia 17.2514
rfoot -7.66888 1.27239
rtoes 8.18902
lfemur -25.6046 2.39091 -16.7047
ltibia 69.7706
lfoot 2.35728 -4.39777
ltoes -11.6025
